# AST/ASF file generated using VICON BodyLanguage
# -----------------------------------------------
:version 1.10
:name VICON
:units
  mass 1.0
  length 0.45
  angle deg
:documentation
   .ast/.asf automatically generated from VICON data using
   VICON BodyBuilder and BodyLanguage model FoxedUp or BRILLIANT.MOD
:root
   order TX TY TZ RX RY RZ
   axis XYZ
   position 0 0 0  
   orientation 0 0 0 
:bonedata
  begin
     id 1 
     name lhipjoint
     direction 0.584852 -0.759097 0.285867 
     length 2.43633 
     axis 0 0 0  XYZ
  end
  begin
     id 2 
     name lfemur
     direction 0.34202 -0.939693 0  
     length 7.14704  
     axis 0 0 20  XYZ
    dof rx ry rz
    limits (-160.0 20.0)
           (-70.0 70.0)
           (-60.0 70.0)
  end
  begin
     id 3 
     name ltibia
     direction 0.342022 -0.939692 0   
     length 7.68483   
     axis 0 0 20   XYZ
    dof rx
    limits (-10.0 170.0)
  end
  begin
     id 4 
     name lfoot
     direction 0.0999605 -0.274639 0.956337   
     length 2.40452   
     axis -90 7.62852e-016 20   XYZ
    dof rx rz
    limits (-45.0 90.0)
           (-70.0 20.0)
  end
  begin
     id 5 
     name ltoes
     direction 1.53468e-011 -4.21881e-011 1   
     length 1.19837   
     axis -90 7.62852e-016 20   XYZ
    dof rx
    limits (-90.0 20.0)
  end
  begin
     id 6 
     name rhipjoint
     direction -0.569886 -0.769002 0.289597   
     length 2.40495  
     axis 0 0 0  XYZ 
  end
  begin
     id 7 
     name rfemur
     direction -0.34202 -0.939693 0   
     length 7.45086   
     axis 0 0 -20   XYZ
    dof rx ry rz
    limits (-160.0 20.0)
           (-70.0 70.0)
           (-70.0 60.0)
  end
  begin
     id 8 
     name rtibia
     direction -0.34202 -0.939693 0   
     length 7.76831   
     axis 0 0 -20   XYZ
    dof rx
    limits (-10.0 170.0)
 end
 begin
     id 9 
     name rfoot
     direction -0.0798572 -0.219406 0.97236   
     length 2.35911  
     axis -90 -7.62852e-016 -20   XYZ
    dof rx rz
    limits (-45.0 90.0)
           (-20.0 70.0)
  end
  begin
     id 10 
     name rtoes
     direction -1.53469e-011 -4.21728e-011 1   
     length 1.18261   
     axis -90 -7.62852e-016 -20   XYZ
    dof rx
    limits (-90.0 20.0)
  end
  begin
     id 11 
     name lowerback
     direction 0.0242088 0.999437 0.0232389   
     length 2.1561   
     axis 0 0 0   XYZ
    dof rx ry rz
    limits (-20.0 45.0)
           (-30.0 30.0)
           (-30.0 30.0)
  end
  begin
     id 12 
     name upperback
     direction -0.0356893 0.999013 -0.0264323   
     length 2.14431   
     axis 0 0 0   XYZ
    dof rx ry rz
    limits (-20.0 45.0)
           (-30.0 30.0)
           (-30.0 30.0)
  end
  begin
     id 13 
     name thorax
     direction -0.0472163 0.998194 -0.0371284   
     length 2.16169   
     axis 0 0 0   XYZ
    dof rx ry rz
    limits (-20.0 45.0)
           (-30.0 30.0)
           (-30.0 30.0)
  end
  begin
     id 14 
     name lowerneck
     direction 0.00863244 0.999921 0.00911972   
     length 1.58651   
     axis 0 0 0   XYZ
    dof rx ry rz
    limits (-20.0 45.0)
           (-30.0 30.0)
           (-30.0 30.0)
  end
  begin
     id 15 
     name upperneck
     direction 0.149523 0.979068 -0.138086   
     length 1.57486   
     axis 0 0 0   XYZ
    dof rx ry rz
    limits (-20.0 45.0)
           (-30.0 30.0)
           (-30.0 30.0)
  end
  begin
     id 16
     name head
     direction 0.0445219 0.997708 -0.0509576  
     length 1.6019  
     axis 0 0 0   XYZ
    dof rx ry rz
    limits (-20.0 45.0)
           (-30.0 30.0)
           (-30.0 30.0)
  end
  begin
     id 17 
     name lclavicle
     direction 0.911271 0.381667 -0.154644  
     length 3.80848  
     axis 0 0 0   XYZ
    dof ry rz
    limits (-20.0 10.0)
           (0.0 20.0)
  end
  begin
     id 18 
     name lhumerus
     direction 1 -4.49003e-011 2.1308e-027   
     length 5.19069   
     axis 180 -30 -90   XYZ
    dof rx ry rz
    limits (-60.0 90.0)
           (-90.0 90.0)
           (-90.0 90.0)
  end
  begin
     id 19
     name lradius
     direction 1 -4.48914e-011 4.01554e-027   
     length 3.30016   
     axis 180 -30 -90   XYZ
    dof rx
    limits (-10.0 170.0)
  end
  begin
     id 20
     name lwrist
     direction 1 -4.49003e-011 1.1934e-026   
     length 1.65008   
     axis -8.46377e-015 90 90   XYZ
    dof ry
    limits (-180.0 0.0)
 end
  begin
     id 21 
     name lhand
     direction 1 -4.49034e-011 2.38659e-026   
     length 0.707698   
     axis -1.52313e-014 90 90   XYZ
    dof rx rz
    limits (-90.0 90.0)
           (-45.0 45.0)
  end
  begin
     id 22 
     name lfingers
     direction 1 -4.48691e-011 4.77775e-026   
     length 0.570564   
     axis -3.04623e-014 90 90   XYZ
    dof rx
    limits (0.0 90.0)
  end
  begin
     id 23
     name lthumb
     direction 0.707107 -6.34832e-011 0.707107   
     length 0.819219   
     axis -90 45 -1.62303e-014   XYZ
    dof rx rz
    limits (-45.0 45.0)
           (-45.0 45.0)
  end
  begin
     id 24 
     name rclavicle
     direction -0.815579 0.573708 -0.0754329   
     length 3.54371  
     axis 0 0 0   XYZ 
    dof ry rz
    limits (-10.0 20.0)
           (-20.0 0.0)
  end
  begin
     id 25 
     name rhumerus
     direction -1 -4.48956e-011 3.05351e-028  
     length 5.23924   
     axis 180 30 90   XYZ
    dof rx ry rz
    limits (-90.0 60.0)
           (-90.0 90.0)
           (-90.0 90.0)
  end
  begin
     id 26 
     name rradius
     direction -1 -4.49013e-011 3.53849e-027   
     length 3.32953   
     axis 180 30 90   XYZ
    dof rx
    limits (-10.0 170.0)
  end
  begin
     id 27 
     name rwrist
     direction -1 -4.48901e-011 1.19374e-026   
     length 1.66477   
     axis -8.46377e-015 -90 -90   XYZ
    dof ry
    limits (-180.0 0.0)
  end
  begin
     id 28
     name rhand
     direction -1 -4.48877e-011 2.38764e-026   
     length 0.607414   
     axis -1.52313e-014 -90 -90   XYZ
    dof rx rz
    limits (-90.0 90.0)
           (-45.0 45.0)
  end
  begin
     id 29
     name rfingers
     direction -1 -4.48882e-011 4.77521e-026   
     length 0.489712   
     axis -3.04623e-014 -90 -90   XYZ
    dof rx
    limits (0.0 90.0)
  end
  begin
     id 30
     name rthumb
     direction -0.707107 -6.34974e-011 0.707107   
     length 0.703132   
     axis -90 -45 1.62303e-014   XYZ
    dof rx rz
    limits (-45.0 45.0)
           (-45.0 45.0)
  end
:hierarchy
  begin
    root lhipjoint rhipjoint lowerback
    lhipjoint lfemur
    lfemur ltibia
    ltibia lfoot
    lfoot ltoes
    rhipjoint rfemur
    rfemur rtibia
    rtibia rfoot
    rfoot rtoes
    lowerback upperback
    upperback thorax
    thorax lowerneck lclavicle rclavicle
    lowerneck upperneck
    upperneck head
    lclavicle lhumerus
    lhumerus lradius
    lradius lwrist
    lwrist lhand lthumb
    lhand lfingers
    rclavicle rhumerus
    rhumerus rradius
    rradius rwrist
    rwrist rhand rthumb
    rhand rfingers
  end

#!OML:ASF E:\VariousWalksJay\Project 1\Capture day 1\Session 1\Actor2.ASF
:FULLY-SPECIFIED
:DEGREES
428
root 8.97873 17.317 -7.80696 5.08299 -22.412 -6.68045
lowerback -4.89681 1.36924 2.47851
upperback 1.13566 1.75812 -2.351
thorax 4.0734 0.963492 -3.68121
lowerneck -4.72602 -6.90917 -7.9815
upperneck 0.41778 -9.40194 17.5663
head 2.17292 -4.47014 6.25171
rclavicle -6.75868e-014 -9.54166e-015
rhumerus -35.068 30.4367 -97.0506
rradius 90.4192
rwrist -9.27252
rhand -24.4672 9.72483
rfingers 7.12502
rthumb 2.02619 -20.2453
lclavicle -6.75868e-014 -9.54166e-015
lhumerus -63.5597 -51.7684 95.5379
lradius 65.4258
lwrist 19.3612
lhand -8.11569 -21.1804
lfingers 7.12502
lthumb 17.7975 8.02517
rfemur -7.05983 1.70811 26.2746
rtibia 55.7722
rfoot -20.31 -4.50006
rtoes -28.3404
lfemur -24.3099 5.96723 -19.6547
ltibia 34.3272
lfoot -18.3465 0.926847
ltoes -2.84251
429
root 8.96092 17.2895 -7.70821 4.44997 -22.7654 -6.07614
lowerback -4.52484 1.14215 1.93211
upperback 1.36186 1.4989 -2.47028
thorax 4.06435 0.825318 -3.52353
lowerneck -4.72309 -6.66375 -7.71479
upperneck 0.468151 -9.09709 17.6937
head 2.14188 -4.31599 6.26733
rclavicle -6.37105e-014 7.95139e-015
rhumerus -35.6308 29.078 -97.3336
rradius 88.2871
rwrist -9.95894
rhand -24.3239 8.58594
rfingers 7.12502
rthumb 2.1645 -21.3828
lclavicle -6.37105e-014 7.95139e-015
lhumerus -59.5223 -50.7417 93.5938
lradius 63.7205
lwrist 18.6468
lhand -8.71562 -21.3719
lfingers 7.12502
lthumb 17.2202 7.88514
rfemur -9.1141 2.55779 25.3838
rtibia 57.1044
rfoot -21.7589 -7.02314
rtoes -27.8013
lfemur -23.6532 6.11183 -20.2939
ltibia 34.683
lfoot -18.7001 0.921141
ltoes -2.11694
430
root 8.9462 17.2582 -7.61271 3.82835 -23.181 -5.54479
lowerback -4.1112 0.923985 1.46588
upperback 1.58838 1.24287 -2.57482
thorax 4.03737 0.689535 -3.39403
lowerneck -4.7409 -6.39095 -7.42124
upperneck 0.541099 -8.75854 17.8148
head 2.11531 -4.14329 6.27714
rclavicle 1.94809e-014 3.18055e-014
rhumerus -36.095 27.6854 -97.5379
rradius 85.9625
rwrist -10.7205
rhand -24.0593 7.24262
rfingers 7.12502
rthumb 2.42009 -22.7234
lclavicle 1.94809e-014 3.18055e-014
lhumerus -55.4726 -49.3703 91.6586
lradius 62.1176
lwrist 17.8769
lhand -9.37693 -21.6021
lfingers 7.12502
lthumb 16.5836 7.70936
rfemur -11.2444 3.43161 24.5415
rtibia 58.114
rfoot -23.1044 -9.44874
rtoes -26.8318
lfemur -23.0406 6.38612 -20.8603
ltibia 35.1294
lfoot -19.0799 0.895769
ltoes -1.55144
431
root 8.93435 17.2235 -7.52017 3.22005 -23.6574 -5.10116
lowerback -3.64797 0.714655 1.09747
upperback 1.82041 0.989275 -2.6675
thorax 3.99279 0.556578 -3.30547
lowerneck -4.79676 -6.09299 -7.09382
upperneck 0.631603 -8.38946 17.9373
head 2.09547 -3.95278 6.28165
rclavicle 2.98177e-015 7.95139e-015
rhumerus -36.4417 26.2674 -97.6533
rradius 83.4409
rwrist -11.5154
rhand -23.6419 5.73406
rfingers 7.12502
rthumb 2.82323 -24.227
lclavicle 2.98177e-015 7.95139e-015
lhumerus -51.5264 -47.6926 89.8048
lradius 60.7367
lwrist 17.0945
lhand -10.0151 -21.8547
lfingers 7.12502
lthumb 15.9691 7.50709
rfemur -13.4315 4.30339 23.7625
rtibia 58.7811
rfoot -24.3755 -11.6604
rtoes -25.5065
lfemur -22.462 6.79889 -21.3351
ltibia 35.6589
lfoot -19.5116 0.840326
ltoes -1.02871
432
root 8.92503 17.1864 -7.42981 2.62157 -24.1772 -4.74676
lowerback -3.11983 0.503393 0.825175
upperback 2.04527 0.723937 -2.74539
thorax 3.90662 0.419135 -3.25436
lowerneck -4.85649 -5.76633 -6.74839
upperneck 0.731531 -7.98469 18.0652
head 2.07466 -3.74377 6.28614
rclavicle 5.20816e-014 1.27222e-014
rhumerus -36.6981 24.8515 -97.6957
rradius 80.7196
rwrist -12.3083
rhand -23.0701 4.15829
rfingers 7.12502
rthumb 3.37539 -25.7947
lclavicle 5.20816e-014 1.27222e-014
lhumerus -47.8399 -45.7619 88.1478
lradius 59.6822
lwrist 16.3602
lhand -10.6308 -22.1288
lfingers 7.12502
lthumb 15.3761 7.27945
rfemur -15.6506 5.13934 23.0543
rtibia 59.0955
rfoot -25.5818 -13.6155
rtoes -24.0603
lfemur -21.8993 7.33266 -21.7122
ltibia 36.2499
lfoot -19.9579 0.756052
ltoes -0.565597
433
root 8.91774 17.1479 -7.3411 2.0338 -24.724 -4.47006
lowerback -2.53496 0.287599 0.63684
upperback 2.27059 0.44501 -2.81463
thorax 3.7903 0.276407 -3.2394
lowerneck -4.93103 -5.41698 -6.391
upperneck 0.823777 -7.55034 18.2117
head 2.05163 -3.51931 6.29512
rclavicle -2.48481e-015 0
rhumerus -36.8467 23.4408 -97.6573
rradius 77.8005
rwrist -13.0507
rhand -22.399 2.67888
rfingers 7.12502
rthumb 4.02352 -27.2629
lclavicle -2.48481e-015 0
lhumerus -44.4683 -43.7098 86.7299
lradius 59.0462
lwrist 15.7442
lhand -11.1862 -22.4148
lfingers 7.12502
lthumb 14.8411 7.03371
rfemur -17.8891 5.91122 22.4149
rtibia 59.0597
rfoot -26.7228 -15.3
rtoes -22.6932
lfemur -21.3397 7.96166 -22.0005
ltibia 36.8708
lfoot -20.3973 0.643452
ltoes -0.138911
